<?xml version="1.0" standalone="no"?>
<!DOCTYPE svg PUBLIC "-//W3C//DTD SVG 20010904//EN"
 "http://www.w3.org/TR/2001/REC-SVG-20010904/DTD/svg10.dtd">
<svg version="1.0" xmlns="http://www.w3.org/2000/svg"
 width="972.000000pt" height="614.000000pt" viewBox="0 0 972.000000 614.000000"
 preserveAspectRatio="xMidYMid meet">

<g transform="translate(0.000000,614.000000) scale(0.100000,-0.100000)"
fill="#000000" stroke="none">
<path d="M4095 5830 c-175 -214 -232 -556 -139 -837 33 -98 96 -219 144 -273
54 -61 59 -46 7 24 -234 312 -235 754 -1 1059 42 54 53 78 37 77 -5 -1 -26
-23 -48 -50z"/>
<path d="M5496 5859 c4 -8 30 -45 56 -82 69 -96 106 -182 139 -317 26 -104 14
-360 -21 -445 -4 -11 -18 -47 -31 -80 -25 -65 -67 -139 -111 -196 -43 -56 -33
-70 12 -19 68 78 138 230 171 375 22 95 17 302 -9 405 -35 134 -154 353 -201
368 -10 3 -11 0 -5 -9z"/>
<path d="M4228 5738 c-54 -72 -98 -157 -124 -238 -25 -76 -28 -99 -27 -225 0
-144 11 -197 67 -325 21 -49 98 -163 114 -168 21 -7 13 13 -27 67 -142 190
-178 456 -94 683 14 38 50 105 79 149 30 44 54 82 54 85 0 14 -21 0 -42 -28z"/>
<path d="M5370 5758 c0 -8 9 -23 20 -33 51 -46 113 -177 141 -295 21 -89 15
-272 -11 -355 -28 -87 -68 -168 -114 -228 -20 -26 -36 -52 -36 -57 0 -24 22
-6 58 48 152 224 182 477 85 722 -39 98 -143 242 -143 198z"/>
<path d="M4335 5613 c-60 -83 -105 -229 -105 -345 0 -116 57 -281 121 -349 42
-45 49 -28 10 25 -45 64 -88 172 -102 256 -21 123 11 265 86 385 17 28 35 56
39 63 4 6 2 12 -3 12 -6 0 -27 -21 -46 -47z"/>
<path d="M5269 5628 c69 -105 97 -176 112 -286 10 -65 9 -98 0 -155 -13 -74
-72 -210 -112 -259 -31 -37 -18 -46 16 -11 70 74 125 235 125 367 0 76 -28
186 -67 266 -23 47 -73 110 -87 110 -4 0 2 -15 13 -32z"/>
<path d="M4469 5522 c-26 -39 -39 -67 -59 -120 -14 -37 -16 -228 -2 -246 5 -6
14 -30 22 -53 7 -23 26 -57 41 -75 31 -36 39 -21 11 20 -47 71 -66 137 -65
229 1 85 23 163 63 223 28 42 31 48 21 54 -5 3 -19 -11 -32 -32z"/>
<path d="M5136 5552 c-3 -4 4 -21 15 -38 19 -28 33 -56 58 -118 16 -38 16
-203 1 -241 -25 -60 -35 -81 -52 -107 -26 -38 -22 -54 6 -21 106 128 104 371
-5 511 -9 12 -20 19 -23 14z"/>
<path d="M4592 5413 c-48 -70 -55 -160 -18 -239 23 -50 42 -71 53 -61 3 3 -4
18 -14 34 -35 50 -47 115 -33 175 7 29 21 68 31 86 22 39 8 43 -19 5z"/>
<path d="M5010 5434 c0 -3 10 -20 22 -36 16 -24 22 -50 26 -107 3 -67 0 -82
-22 -126 -29 -57 -25 -73 9 -31 35 44 51 136 35 200 -13 52 -44 106 -61 106
-5 0 -9 -3 -9 -6z"/>
<path d="M4779 5365 c-14 -8 -34 -25 -43 -39 -53 -82 39 -176 130 -133 43 21
65 83 43 123 -26 50 -87 73 -130 49z"/>
<path d="M4795 5043 c-3 -15 -10 -44 -15 -63 -15 -59 -41 -163 -50 -200 -4
-19 -42 -168 -84 -330 -42 -162 -116 -452 -166 -645 -49 -192 -96 -377 -105
-410 -9 -33 -21 -76 -25 -95 -5 -19 -13 -51 -19 -70 -5 -19 -17 -66 -26 -105
-9 -38 -22 -81 -28 -95 l-10 -25 -8 30 c-4 17 -28 116 -53 220 -26 105 -56
228 -67 275 -11 47 -24 103 -29 125 -18 86 -67 292 -77 325 -6 19 -19 70 -28
114 -18 78 -18 79 3 95 34 26 45 67 27 105 -28 59 -85 71 -134 30 -45 -37 -43
-85 4 -128 l35 -32 -11 -210 c-5 -115 -14 -288 -19 -384 -5 -96 -14 -263 -19
-370 -16 -313 -23 -410 -31 -410 -3 0 -39 48 -80 108 -41 59 -115 166 -164
238 -50 71 -95 137 -101 146 -5 9 -25 37 -44 63 -31 44 -33 51 -22 80 16 44
14 63 -9 95 -39 55 -117 47 -147 -15 -16 -33 -16 -37 0 -71 11 -23 29 -40 52
-50 19 -8 35 -18 35 -22 0 -4 11 -73 25 -152 13 -80 29 -176 35 -215 6 -38 15
-92 20 -120 5 -27 14 -84 20 -125 7 -41 17 -102 24 -135 l12 -60 1305 0 1304
0 7 40 c15 82 30 172 39 230 5 33 13 85 18 115 5 30 14 84 20 120 6 36 19 117
31 180 11 63 20 121 20 128 0 6 9 12 20 12 30 0 70 44 70 77 0 50 -11 71 -45
87 -45 22 -92 11 -110 -25 -18 -34 -19 -53 -4 -94 11 -29 9 -36 -22 -80 -19
-26 -41 -58 -49 -70 -54 -80 -128 -186 -200 -290 -46 -66 -95 -137 -109 -157
-13 -21 -28 -38 -31 -38 -8 0 -14 91 -30 395 -6 105 -14 253 -20 330 -5 77
-14 254 -20 394 l-10 254 35 34 c44 43 46 79 6 122 -47 50 -117 35 -140 -30
-12 -35 -6 -55 27 -91 l24 -27 -37 -148 c-35 -140 -46 -187 -60 -258 -3 -16
-10 -46 -15 -65 -5 -19 -19 -75 -30 -125 -12 -49 -29 -124 -39 -165 -10 -41
-35 -148 -57 -237 -21 -89 -41 -160 -46 -157 -7 5 -23 54 -39 127 -15 64 -26
105 -84 327 -32 118 -61 231 -65 250 -4 19 -27 107 -50 195 -23 88 -46 178
-50 200 -5 22 -14 58 -20 80 -6 22 -15 56 -19 75 -5 19 -21 80 -36 135 -15 55
-31 116 -35 135 -8 34 -111 433 -128 495 -11 40 -39 45 -47 8z m-35 -550 c0
-16 -5 -35 -10 -43 -7 -11 -10 -4 -10 28 0 23 5 42 10 42 6 0 10 -12 10 -27z
m140 -9 c0 -21 -4 -33 -10 -29 -5 3 -10 19 -10 36 0 16 5 29 10 29 6 0 10 -16
10 -36z m-163 -391 c-4 -58 -7 -136 -7 -173 l0 -67 -52 -11 c-29 -5 -55 -8
-57 -6 -5 5 15 119 50 288 12 55 27 73 63 75 5 1 6 -44 3 -106z m215 88 c8 -7
68 -300 68 -331 0 -16 -5 -20 -17 -17 -10 3 -34 8 -54 11 l-36 6 -6 113 c-4
61 -7 140 -7 175 0 61 1 63 23 57 12 -4 25 -10 29 -14z m-900 -561 c12 -45 27
-124 30 -160 2 -29 -1 -35 -17 -38 -36 -4 -42 11 -50 121 -7 102 -6 109 11
105 10 -2 22 -14 26 -28z m1572 -72 c-7 -111 -14 -128 -49 -128 -21 0 -23 3
-18 43 2 23 9 55 14 71 5 16 9 40 9 53 0 32 17 63 35 63 13 0 14 -16 9 -102z
m-914 -50 c0 -57 -3 -133 -7 -170 l-6 -68 -93 0 c-104 0 -107 2 -85 74 6 17
17 74 26 126 10 52 21 103 26 112 10 18 32 25 97 27 l42 1 0 -102z m319 96
c38 -8 47 -22 61 -105 7 -35 16 -84 21 -109 5 -25 12 -62 15 -82 l7 -38 -95 0
-95 0 -7 38 c-3 20 -6 97 -6 170 l0 132 34 0 c18 0 48 -3 65 -6z m-913 -358
c11 -10 44 -153 44 -189 0 -14 -11 -17 -59 -17 l-58 0 -6 68 c-4 37 -7 89 -7
115 l0 48 38 -7 c20 -3 42 -11 48 -18z m1494 -30 c0 -29 -3 -81 -6 -115 l-7
-61 -60 0 -59 0 6 33 c3 17 9 60 15 95 11 73 21 89 64 95 18 2 35 5 40 5 4 1
7 -22 7 -52z m-2032 -138 c21 -33 20 -48 -1 -48 -22 0 -34 15 -42 48 -9 43 16
44 43 0z m2527 5 c-9 -38 -29 -57 -48 -46 -14 7 -14 12 4 41 27 41 54 44 44 5z
m-1422 -138 c-1 -44 -5 -108 -8 -142 l-7 -63 -130 0 -131 0 7 43 c20 137 40
223 55 235 11 9 45 12 116 10 l100 -3 -2 -80z m494 72 c5 -9 53 -249 53 -270
0 -4 -60 -6 -132 -5 l-133 3 -9 127 c-5 69 -6 134 -3 143 6 13 23 16 112 14
60 -1 108 -6 112 -12z m-1491 -114 c26 -35 17 -53 -25 -53 -40 0 -54 10 -65
48 -7 20 -4 22 35 22 28 0 46 -6 55 -17z m2358 -5 c-11 -38 -25 -48 -64 -48
-48 0 -53 7 -33 41 15 25 24 29 61 29 40 0 43 -2 36 -22z m-1847 -32 c6 -6 25
-147 20 -152 -3 -3 -39 -8 -80 -11 l-74 -6 -6 33 c-4 18 -7 56 -7 86 l0 53 48
4 c41 3 93 0 99 -7z m1391 -70 c2 -43 -2 -83 -7 -90 -8 -9 -29 -10 -83 -4 -40
5 -74 11 -77 13 -2 3 2 38 9 79 14 83 12 81 100 80 l55 0 3 -78z m-1783 -83
c14 -21 25 -43 25 -49 0 -7 -24 -17 -52 -24 -29 -6 -60 -14 -70 -16 -12 -4
-21 9 -37 51 -12 31 -21 60 -21 65 0 6 29 10 65 10 63 0 65 -1 90 -37z m2180
15 c-3 -13 -10 -34 -13 -48 -16 -58 -20 -60 -94 -43 -38 8 -68 20 -68 27 0 6
11 28 25 49 25 36 27 37 92 37 63 0 65 -1 58 -22z"/>
<path d="M6045 2273 c-187 -28 -329 -176 -357 -373 -47 -333 241 -557 579
-449 34 11 67 27 74 35 7 8 13 44 15 79 3 75 -7 81 -66 42 -60 -40 -116 -57
-188 -57 -82 0 -134 22 -181 75 -59 68 -76 118 -76 225 0 152 42 223 174 290
13 7 56 12 96 12 59 -1 85 -6 140 -31 37 -17 72 -31 76 -31 5 0 9 33 9 74 l0
74 -49 16 c-49 16 -192 27 -246 19z"/>
<path d="M2202 2261 c-12 -7 -12 -18 -1 -67 18 -81 18 -595 0 -683 -7 -34 -10
-65 -8 -67 8 -8 166 -11 178 -4 8 6 10 20 4 51 -5 24 -9 94 -9 154 l-1 110 68
7 c66 8 170 50 194 80 41 50 53 90 53 177 0 84 -2 92 -32 137 -38 56 -78 82
-157 100 -62 15 -268 19 -289 5z m252 -120 c50 -28 69 -63 70 -128 0 -32 -5
-72 -12 -89 -15 -34 -71 -71 -117 -76 l-30 -3 -3 150 c-1 82 0 155 3 162 6 16
45 9 89 -16z"/>
<path d="M4170 2242 l-65 -17 3 -35 c8 -72 5 -667 -2 -707 -10 -49 -8 -50 96
-45 67 4 70 5 62 25 -11 34 -16 613 -6 697 6 49 6 79 0 88 -12 14 -7 15 -88
-6z"/>
<path d="M5180 2241 l-65 -16 4 -45 c9 -82 6 -654 -3 -697 l-8 -41 70 -4 c104
-5 105 -4 95 45 -10 53 -11 657 0 714 10 58 -7 66 -93 44z"/>
<path d="M4395 2237 c-38 -12 -40 -15 -36 -47 7 -74 6 -677 -2 -711 -8 -33 -7
-37 15 -40 12 -3 51 -3 86 -1 l63 4 -8 46 c-9 51 -11 600 -3 697 l5 60 -40 2
c-22 1 -58 -4 -80 -10z"/>
<path d="M6438 2230 c-42 -33 -45 -108 -6 -149 26 -29 90 -29 117 0 22 24 35
77 25 105 -22 61 -88 83 -136 44z"/>
<path d="M6708 2040 c-46 -50 -83 -96 -83 -103 0 -6 14 -14 30 -17 l30 -5 5
-200 c6 -228 11 -244 77 -276 36 -17 54 -20 95 -15 28 4 60 12 70 17 17 9 58
87 58 110 0 6 -26 7 -64 3 -90 -9 -96 1 -102 182 -7 185 -8 182 64 186 54 3
57 4 60 31 2 15 7 27 12 27 11 0 59 -81 89 -150 14 -30 34 -77 47 -105 12 -27
30 -70 40 -95 9 -25 21 -49 26 -54 26 -30 -29 -141 -116 -234 -70 -75 -67 -82
41 -82 l71 0 37 43 c45 51 112 182 153 297 70 197 114 307 138 348 37 64 30
72 -66 72 l-80 0 0 -27 c0 -33 -81 -293 -91 -293 -4 0 -14 19 -22 43 -9 23
-31 80 -50 127 -20 47 -41 100 -47 117 l-12 33 -140 -1 c-77 0 -143 3 -146 6
-6 5 -10 34 -11 78 -1 16 -7 27 -15 27 -8 0 -52 -41 -98 -90z"/>
<path d="M2847 2023 c-33 -5 -52 -33 -65 -91 -12 -54 -3 -59 53 -33 25 12 54
21 64 21 53 0 101 -49 101 -103 0 -20 -15 -30 -111 -73 -140 -61 -164 -88
-164 -180 0 -68 14 -93 70 -122 47 -24 135 -21 168 5 28 21 29 21 47 3 15 -15
29 -18 70 -14 28 2 55 6 60 9 4 2 4 24 -1 47 -4 24 -8 124 -9 223 0 153 -3
186 -19 221 -29 64 -70 87 -160 90 -42 1 -88 0 -104 -3z m151 -415 l-3 -63
-46 -3 c-62 -4 -93 20 -91 72 1 20 4 41 7 46 4 6 35 10 71 10 l65 0 -3 -62z"/>
<path d="M3465 2020 c-11 -4 -31 -20 -44 -34 -31 -33 -39 -33 -43 2 -3 27 -4
27 -73 27 l-70 0 5 -55 c8 -87 6 -420 -3 -472 -8 -46 -8 -46 22 -53 17 -4 56
-3 87 1 54 6 56 7 49 33 -4 14 -10 109 -12 211 l-5 186 37 17 c42 20 74 22
110 5 19 -8 29 -8 37 0 17 17 29 113 16 129 -12 14 -81 17 -113 3z"/>
<path d="M3745 2026 c-5 -3 -22 -7 -36 -10 -17 -4 -30 -16 -37 -33 -17 -46
-24 -91 -14 -97 6 -3 31 4 57 15 42 18 53 20 87 10 46 -14 71 -48 66 -91 -3
-29 -9 -34 -98 -71 -132 -57 -180 -106 -180 -185 0 -79 69 -137 165 -138 38
-1 58 5 79 22 27 21 30 21 42 5 9 -14 27 -18 73 -18 33 1 62 3 65 6 3 3 2 39
-4 80 -5 41 -10 145 -10 232 0 177 -6 197 -67 244 -31 24 -47 28 -107 30 -39
1 -75 1 -81 -1z m123 -418 l-3 -63 -47 -3 c-56 -4 -88 21 -88 67 0 56 7 61 77
61 l64 0 -3 -62z"/>
<path d="M4755 2023 c-32 -8 -104 -83 -132 -138 -21 -39 -27 -69 -31 -141 -6
-116 13 -180 72 -238 63 -64 106 -80 201 -78 44 1 88 5 97 8 17 5 58 83 58
110 0 17 -19 18 -57 3 -15 -5 -49 -11 -74 -11 -38 -1 -54 4 -87 30 -39 31 -78
104 -67 123 4 5 66 9 139 9 110 0 136 3 147 16 16 20 15 111 -2 173 -16 56
-82 125 -128 134 -37 8 -105 7 -136 0z m132 -128 c26 -26 34 -41 31 -62 -3
-28 -3 -28 -91 -31 -101 -3 -111 5 -80 65 14 26 31 42 54 50 48 17 47 17 86
-22z"/>
<path d="M6419 2013 c0 -4 -1 -135 -2 -290 l-2 -282 63 -3 c91 -4 105 3 95 49
-9 41 -11 423 -3 488 l5 40 -77 3 c-43 2 -78 -1 -79 -5z"/>
<path d="M3155 951 c-3 -5 -1 -12 4 -15 17 -11 69 -122 101 -216 18 -52 35
-99 39 -105 4 -5 13 -30 20 -55 7 -25 17 -54 21 -65 5 -11 15 -37 22 -59 14
-43 26 -51 63 -42 31 8 38 23 161 336 20 52 41 99 45 105 5 5 9 15 9 23 0 8 9
27 21 43 32 46 20 61 -48 57 l-58 -3 -13 -64 c-7 -35 -19 -77 -26 -95 -8 -17
-26 -62 -41 -101 -39 -105 -44 -115 -54 -115 -18 0 -121 302 -121 358 0 21 -4
22 -69 22 -39 0 -72 -4 -76 -9z"/>
<path d="M3830 793 c-40 -5 -60 -25 -60 -61 0 -19 4 -23 18 -17 46 20 81 17
107 -9 43 -43 31 -65 -56 -107 -88 -43 -109 -67 -109 -125 0 -34 5 -47 26 -63
30 -24 112 -29 132 -9 9 9 18 9 37 0 14 -7 38 -12 53 -12 l27 0 -3 162 c-3
147 -6 166 -25 195 -22 32 -64 55 -96 51 -9 0 -32 -3 -51 -5z m88 -276 c2 -21
-2 -45 -9 -53 -28 -34 -99 -2 -99 45 0 38 18 52 65 49 39 -3 40 -4 43 -41z"/>
<path d="M4228 781 c-20 -10 -40 -15 -45 -10 -4 4 -27 11 -51 15 l-42 7 2
-199 3 -199 44 0 45 0 -3 146 c-3 159 -1 163 56 175 24 5 36 1 53 -16 22 -22
23 -27 17 -166 l-5 -144 37 0 c61 0 61 1 57 165 -5 181 -11 204 -57 227 -44
22 -67 22 -111 -1z"/>
<path d="M4605 789 c-86 -19 -140 -100 -140 -209 0 -124 66 -190 189 -190 66
0 66 0 83 35 20 41 13 53 -22 37 -82 -38 -166 29 -167 132 -2 88 60 154 131
140 17 -4 34 -11 37 -15 3 -5 12 -9 20 -9 16 0 20 65 5 74 -17 11 -96 13 -136
5z"/>
<path d="M4948 790 c-93 -16 -148 -91 -148 -203 0 -87 18 -128 72 -167 40 -29
48 -31 109 -28 78 4 127 34 156 96 22 46 25 173 4 217 -31 65 -107 99 -193 85z
m75 -89 c55 -50 71 -124 41 -184 -38 -74 -71 -85 -124 -41 -42 36 -60 74 -60
131 0 55 28 109 63 122 28 11 45 5 80 -28z"/>
<path d="M6068 787 c-70 -32 -108 -103 -108 -202 0 -90 24 -136 92 -178 28
-18 142 -24 164 -9 11 7 34 46 34 57 0 4 -23 4 -50 0 -80 -11 -139 27 -143 93
l-2 27 100 5 100 5 -2 59 c-3 83 -17 111 -67 136 -47 22 -78 24 -118 7z m109
-88 c28 -46 12 -60 -59 -57 -72 3 -82 17 -47 62 29 36 83 34 106 -5z"/>
<path d="M6484 786 c-18 -8 -35 -19 -38 -25 -10 -16 -26 -14 -26 3 0 16 -77
33 -90 20 -5 -5 -6 -25 -1 -44 11 -51 13 -206 3 -273 -10 -68 -2 -80 55 -75
34 3 38 6 35 28 -1 14 -2 79 -2 145 1 141 4 148 81 149 50 1 53 3 61 31 6 23
4 33 -9 43 -21 15 -30 15 -69 -2z"/>
<path d="M5229 784 c-4 -37 0 -296 6 -324 13 -70 97 -95 169 -51 41 26 42 26
49 0 4 -16 12 -20 39 -17 l33 3 3 199 2 198 -22 -6 c-13 -3 -36 -6 -52 -6 -27
0 -28 -1 -21 -37 11 -54 13 -235 3 -255 -7 -14 -21 -18 -58 -18 -69 0 -74 12
-68 177 5 130 5 133 -16 133 -11 0 -31 3 -43 6 -13 4 -23 2 -24 -2z"/>
<path d="M5622 783 c-24 -3 -42 -7 -40 -11 30 -57 61 -138 88 -231 35 -120 54
-151 94 -151 30 0 39 12 60 85 36 128 79 256 92 272 19 25 17 30 -12 37 -40
10 -64 -2 -64 -32 0 -46 -56 -217 -71 -217 -13 0 -50 100 -73 199 -12 54 -12
54 -74 49z"/>
</g>
</svg>
